<svg xmlns="http://www.w3.org/2000/svg" xmlns:xlink="http://www.w3.org/1999/xlink" width="128" zoomAndPan="magnify" viewBox="0 0 96 95.999999" height="128" preserveAspectRatio="xMidYMid meet" version="1.0"><path fill="#ffffff" d="M 48 0 C 21.53125 0 0 21.53125 0 48 C 0 74.46875 21.53125 96 48 96 C 74.46875 96 96 74.46875 96 48 C 96 21.53125 74.46875 0 48 0 Z M 48 91.5 C 24.015625 91.5 4.5 71.984375 4.5 48 C 4.5 24.015625 24.015625 4.5 48 4.5 C 71.984375 4.5 91.5 24.015625 91.5 48 C 91.5 71.984375 71.984375 91.5 48 91.5 Z M 70.558594 28.21875 L 25.441406 28.21875 C 22.421875 28.21875 19.96875 30.675781 19.96875 33.691406 L 19.96875 62.308594 C 19.96875 65.328125 22.421875 67.78125 25.441406 67.78125 L 70.558594 67.78125 C 73.574219 67.78125 76.03125 65.328125 76.03125 62.308594 L 76.03125 33.691406 C 76.03125 30.675781 73.574219 28.21875 70.558594 28.21875 Z M 67.167969 32.71875 L 48 47.9375 L 28.832031 32.71875 Z M 70.558594 63.28125 L 25.441406 63.28125 C 24.90625 63.28125 24.46875 62.84375 24.46875 62.308594 L 24.46875 35 L 46.601562 52.574219 C 47.011719 52.898438 47.503906 53.0625 48 53.0625 C 48.496094 53.0625 48.988281 52.898438 49.398438 52.574219 L 71.53125 35 L 71.53125 62.308594 C 71.53125 62.84375 71.09375 63.28125 70.558594 63.28125 Z M 70.558594 63.28125 " fill-opacity="1" fill-rule="nonzero"/></svg>