<svg xmlns="http://www.w3.org/2000/svg" xmlns:xlink="http://www.w3.org/1999/xlink" width="128" zoomAndPan="magnify" viewBox="0 0 96 95.999999" height="128" preserveAspectRatio="xMidYMid meet" version="1.0"><path fill="#fefefe" d="M 48 96 C 21.53125 96 0 74.46875 0 48 C 0 21.53125 21.53125 0 48 0 C 74.46875 0 96 21.53125 96 48 C 96 74.46875 74.46875 96 48 96 Z M 48 4 C 23.738281 4 4 23.738281 4 48 C 4 72.261719 23.738281 92 48 92 C 72.261719 92 92 72.261719 92 48 C 92 23.738281 72.261719 4 48 4 Z M 48 4 " fill-opacity="1" fill-rule="nonzero"/><path fill="#fefefe" d="M 61.878906 76.011719 C 57.816406 76.011719 53.636719 74.929688 50.296875 73.882812 C 43.726562 71.832031 37.660156 68.15625 32.753906 63.246094 C 26.152344 56.648438 21.648438 47.832031 20.398438 39.0625 C 19.839844 35.128906 19.511719 30.09375 21.976562 26.074219 C 24.28125 22.328125 28.445312 20 32.847656 20 C 33.617188 20 34.359375 20.085938 35.074219 20.203125 C 35.113281 20.210938 35.152344 20.214844 35.1875 20.226562 C 37.667969 20.6875 39.632812 22.8125 39.980469 25.414062 L 41.652344 37.914062 C 42.003906 40.554688 40.605469 43.167969 38.238281 44.269531 C 37.980469 44.386719 37.714844 44.503906 37.445312 44.609375 C 38.839844 47.664062 40.757812 50.421875 43.164062 52.828125 C 45.570312 55.234375 48.328125 57.15625 51.386719 58.550781 C 51.488281 58.285156 51.605469 58.015625 51.71875 57.757812 C 52.824219 55.390625 55.441406 53.984375 58.078125 54.347656 L 70.578125 56.019531 C 73.203125 56.367188 75.34375 58.367188 75.785156 60.878906 C 75.914062 61.628906 76 62.375 76 63.148438 C 76 67.304688 73.972656 71.207031 70.570312 73.59375 C 68.03125 75.375 64.992188 76.011719 61.878906 76.011719 Z M 32.847656 24 C 29.828125 24 26.964844 25.597656 25.382812 28.167969 C 23.589844 31.097656 23.890625 35.226562 24.359375 38.5 C 25.488281 46.425781 29.574219 54.414062 35.578125 60.414062 C 40.03125 64.867188 45.53125 68.203125 51.488281 70.058594 C 59.480469 72.550781 64.972656 72.640625 68.277344 70.316406 C 70.570312 68.707031 72 65.957031 72 63.148438 C 72 62.601562 71.933594 62.078125 71.847656 61.578125 C 71.703125 60.746094 70.96875 60.101562 70.054688 59.980469 L 57.554688 58.304688 C 56.644531 58.203125 55.722656 58.644531 55.359375 59.4375 C 55.046875 60.105469 54.824219 60.832031 54.6875 61.597656 C 54.585938 62.179688 54.226562 62.683594 53.714844 62.984375 C 53.203125 63.277344 52.585938 63.332031 52.03125 63.128906 C 47.617188 61.503906 43.6875 58.988281 40.351562 55.652344 C 37.015625 52.320312 34.5 48.386719 32.875 43.96875 C 32.671875 43.410156 32.722656 42.796875 33.019531 42.28125 C 33.316406 41.769531 33.824219 41.410156 34.40625 41.3125 C 35.167969 41.179688 35.894531 40.953125 36.5625 40.640625 C 37.355469 40.273438 37.824219 39.371094 37.699219 38.445312 L 36.015625 25.945312 C 35.894531 25.027344 35.242188 24.292969 34.4375 24.15625 C 34.300781 24.128906 34.164062 24.09375 34.035156 24.039062 C 33.914062 24.070312 33.390625 24 32.847656 24 Z M 32.847656 24 " fill-opacity="1" fill-rule="nonzero"/></svg>