<svg xmlns="http://www.w3.org/2000/svg" xmlns:xlink="http://www.w3.org/1999/xlink" width="128" zoomAndPan="magnify" viewBox="0 0 96 95.999999" height="128" preserveAspectRatio="xMidYMid meet" version="1.0"><path fill="#ffffff" d="M 47.964844 0.0859375 C 21.308594 0.175781 0.00390625 21.796875 0.351562 48.382812 C 0.382812 51.058594 0.640625 53.714844 1.121094 56.347656 C 1.605469 58.980469 2.304688 61.554688 3.222656 64.070312 C 4.140625 66.582031 5.265625 69.003906 6.59375 71.328125 C 7.921875 73.652344 9.4375 75.851562 11.140625 77.921875 C 11.410156 78.25 11.621094 78.609375 11.78125 79 C 11.941406 79.394531 12.039062 79.800781 12.078125 80.222656 C 12.113281 80.644531 12.089844 81.0625 12 81.476562 C 11.910156 81.890625 11.761719 82.28125 11.554688 82.648438 L 7.4375 90.007812 C 6.296875 92.046875 8.15625 94.457031 10.425781 93.882812 L 24.367188 90.34375 C 25.371094 90.085938 26.339844 90.1875 27.269531 90.640625 C 33.507812 93.660156 40.09375 95.246094 47.03125 95.394531 C 73.832031 96 95.828125 74.640625 95.914062 47.898438 C 95.996094 21.453125 74.484375 0 47.964844 0.0859375 Z M 48.128906 89.535156 C 46.757812 89.535156 45.390625 89.46875 44.023438 89.335938 C 42.660156 89.199219 41.304688 89 39.957031 88.734375 C 38.613281 88.464844 37.28125 88.132812 35.96875 87.738281 C 34.65625 87.339844 33.367188 86.878906 32.097656 86.355469 C 30.832031 85.832031 29.589844 85.246094 28.382812 84.601562 C 27.171875 83.957031 25.996094 83.253906 24.855469 82.492188 C 23.714844 81.734375 22.613281 80.917969 21.554688 80.050781 C 20.492188 79.183594 19.476562 78.265625 18.507812 77.296875 C 17.535156 76.328125 16.617188 75.316406 15.746094 74.257812 C 14.875 73.199219 14.058594 72.101562 13.296875 70.964844 C 12.535156 69.828125 11.828125 68.652344 11.183594 67.445312 C 10.535156 66.238281 9.949219 65.003906 9.425781 63.738281 C 8.898438 62.476562 8.4375 61.1875 8.039062 59.878906 C 7.640625 58.570312 7.308594 57.242188 7.039062 55.898438 C 6.773438 54.558594 6.570312 53.207031 6.4375 51.84375 C 6.304688 50.480469 6.234375 49.117188 6.234375 47.746094 C 6.234375 24.667969 24.992188 5.960938 48.132812 5.960938 C 71.179688 5.960938 89.878906 24.523438 90.023438 47.480469 C 90.171875 70.511719 71.222656 89.535156 48.128906 89.535156 Z M 48.128906 89.535156 " fill-opacity="1" fill-rule="nonzero"/><path fill="#ffffff" d="M 40.644531 27.433594 L 40.664062 27.46875 L 43.160156 32.414062 C 43.433594 32.949219 43.609375 33.511719 43.695312 34.105469 C 43.785156 34.699219 43.773438 35.289062 43.667969 35.878906 C 43.5625 36.46875 43.367188 37.027344 43.078125 37.554688 C 42.789062 38.082031 42.425781 38.546875 41.988281 38.957031 C 41.550781 39.363281 41.1875 39.824219 40.898438 40.347656 C 40.613281 40.871094 40.414062 41.425781 40.308594 42.011719 C 40.199219 42.597656 40.1875 43.183594 40.269531 43.773438 C 40.351562 44.363281 40.527344 44.925781 40.792969 45.460938 C 42.292969 48.464844 44.890625 52.605469 48.859375 55.59375 C 49.300781 55.929688 49.785156 56.195312 50.308594 56.386719 C 50.835938 56.578125 51.375 56.6875 51.933594 56.714844 C 52.488281 56.746094 53.039062 56.691406 53.582031 56.554688 C 54.121094 56.421875 54.632812 56.207031 55.109375 55.917969 L 56.71875 54.941406 C 57.449219 54.5 58.242188 54.238281 59.09375 54.160156 C 59.945312 54.082031 60.773438 54.195312 61.570312 54.496094 L 67.96875 56.921875 C 68.308594 57.050781 68.632812 57.210938 68.941406 57.40625 C 69.25 57.597656 69.539062 57.820312 69.804688 58.070312 C 70.066406 58.320312 70.304688 58.589844 70.519531 58.886719 C 70.730469 59.183594 70.910156 59.496094 71.058594 59.828125 C 71.207031 60.160156 71.324219 60.503906 71.40625 60.859375 C 71.484375 61.210938 71.53125 61.570312 71.542969 61.933594 C 71.554688 62.296875 71.527344 62.65625 71.46875 63.015625 C 71.40625 63.375 71.3125 63.722656 71.183594 64.0625 C 71.109375 64.257812 71.023438 64.449219 70.925781 64.632812 L 69.15625 68.058594 C 68.867188 68.617188 68.492188 69.113281 68.035156 69.546875 C 67.578125 69.976562 67.058594 70.320312 66.484375 70.578125 C 65.910156 70.832031 65.308594 70.988281 64.679688 71.039062 C 64.054688 71.089844 63.433594 71.039062 62.824219 70.878906 C 52.777344 68.285156 28.835938 59.277344 26.90625 32.027344 C 26.871094 31.488281 26.910156 30.953125 27.027344 30.421875 C 27.148438 29.894531 27.339844 29.394531 27.609375 28.921875 C 27.875 28.449219 28.203125 28.023438 28.59375 27.648438 C 28.984375 27.273438 29.421875 26.960938 29.90625 26.710938 L 33.167969 25.039062 C 33.492188 24.875 33.832031 24.742188 34.179688 24.640625 C 34.53125 24.539062 34.886719 24.476562 35.25 24.445312 C 35.613281 24.417969 35.976562 24.421875 36.339844 24.464844 C 36.703125 24.503906 37.054688 24.582031 37.402344 24.691406 C 37.75 24.804688 38.082031 24.945312 38.402344 25.125 C 38.71875 25.300781 39.019531 25.503906 39.296875 25.742188 C 39.574219 25.976562 39.828125 26.234375 40.054688 26.519531 C 40.28125 26.804688 40.476562 27.109375 40.644531 27.433594 Z M 40.644531 27.433594 " fill-opacity="1" fill-rule="nonzero"/></svg>